<svg width="512" height="512" viewBox="0 0 512 512" fill="none" xmlns="http://www.w3.org/2000/svg">
<path d="M371.525 245.023C391.557 251.789 407.115 262.783 418.197 278.006C429.279 293.229 434.82 312.257 434.82 335.091C434.82 379.914 417.344 414.377 382.393 438.48C347.869 462.16 300.557 474 240.459 474H25L114.508 30H312.705C357.885 30 392.623 38.4571 416.918 55.3714C441.639 71.8629 454 95.9657 454 127.68C454 156.434 446.328 180.96 430.984 201.257C416.066 221.131 396.246 235.72 371.525 245.023ZM167.574 81.3772L138.803 223.457H269.869C306.098 223.457 334.656 216.269 355.541 201.891C376.852 187.091 387.508 165.737 387.508 137.829C387.508 118.8 379.836 104.634 364.492 95.3315C349.574 86.0286 327.836 81.3772 299.279 81.3772H167.574ZM244.934 422.623C285.426 422.623 316.541 415.223 338.279 400.423C360.443 385.2 371.525 363.634 371.525 335.726C371.525 313.737 363.639 298.091 347.869 288.789C332.525 279.486 309.295 274.834 278.18 274.834H128.574L99.1639 422.623H244.934Z" fill="#481C03"/>
<path d="M382.816 370.869L382.607 370.779V371.007L382.607 394.366V394.465L382.698 394.504L455.578 425.704L382.699 456.471L382.607 456.51V456.609L382.607 482V482.227L382.816 482.138L485.302 438.321L485.393 438.282V438.183V414.969V414.87L485.302 414.831L382.816 370.869ZM382.607 365.429V365.579H382.757H485.243H485.393V365.429L485.393 319.29C485.393 308.244 483.291 298.5 479.082 290.061L479.081 290.06C474.775 281.525 468.753 274.926 461.017 270.267C453.28 265.512 444.272 263.136 434 263.136C423.728 263.136 414.72 265.512 406.983 270.267C399.246 274.926 393.274 281.525 389.065 290.06C384.758 298.5 382.607 308.244 382.607 319.29L382.607 365.429ZM410.976 296.325L410.977 296.323C416.605 290.265 424.273 287.231 434 287.231C443.727 287.231 451.444 290.265 457.17 296.324C462.799 302.287 465.621 310.324 465.621 320.451V341.774H402.379L402.379 320.451C402.379 310.325 405.249 302.288 410.976 296.325ZM483.923 238.494L483.923 238.492C486.075 230.934 487.15 223.133 487.15 215.091C487.15 205.791 485.733 197.886 482.892 191.382C480.052 184.881 476.229 180.02 471.418 176.809C466.513 173.503 461.116 171.85 455.229 171.85C448.371 171.85 442.915 173.647 438.879 177.256C434.859 180.754 431.916 184.982 430.053 189.938C428.195 194.879 426.339 201.221 424.484 208.963L424.483 208.965C422.825 216.409 421.169 221.958 419.516 225.619C418.647 227.39 417.564 228.709 416.273 229.585C414.983 230.461 413.476 230.901 411.746 230.901C408.286 230.901 405.5 229.381 403.378 226.324C401.256 223.169 400.183 218.32 400.183 211.754C400.183 202.402 402.858 193.045 408.216 183.682L408.301 183.532L408.142 183.468L390.133 176.214L390.017 176.167L389.95 176.273C387.013 180.931 384.762 186.363 383.197 192.566C381.632 198.769 380.85 205.117 380.85 211.609C380.85 220.91 382.267 228.814 385.108 235.319L385.109 235.32C387.949 241.725 391.821 246.537 396.729 249.748C401.538 252.957 406.935 254.561 412.917 254.561C419.775 254.561 425.279 252.813 429.412 249.302L429.414 249.3C433.531 245.706 436.523 241.429 438.386 236.472C440.244 231.531 442.1 225.189 443.955 217.448L443.955 217.447C445.126 212.419 446.199 208.459 447.173 205.563L447.173 205.562C448.144 202.578 449.453 200.18 451.095 198.362L451.095 198.362L451.1 198.355C452.634 196.455 454.592 195.509 456.986 195.509C460.245 195.509 462.885 197.072 464.912 200.227C466.841 203.383 467.817 208.282 467.817 214.946C467.817 220.927 466.844 226.908 464.896 232.891C462.948 238.875 460.368 244.035 457.158 248.373L457.047 248.523L457.218 248.599L475.08 256.579L475.187 256.627L475.26 256.534C478.788 251.969 481.674 245.954 483.923 238.494ZM450.983 198.261C449.324 200.099 448.006 202.517 447.03 205.516C446.054 208.417 444.981 212.383 443.809 217.413C441.955 225.151 440.1 231.487 438.246 236.42C436.391 241.353 433.414 245.609 429.315 249.187L450.983 198.261Z" fill="#FE9E45" stroke="white" stroke-width="0.3"/>
</svg>
