<?xml version="1.0" standalone="no"?>
<!DOCTYPE svg PUBLIC "-//W3C//DTD SVG 20010904//EN"
 "http://www.w3.org/TR/2001/REC-SVG-20010904/DTD/svg10.dtd">
<svg version="1.0" xmlns="http://www.w3.org/2000/svg"
 width="512.000000pt" height="512.000000pt" viewBox="0 0 512.000000 512.000000"
 preserveAspectRatio="xMidYMid meet">
<metadata>
Created by potrace 1.14, written by Peter Selinger 2001-2017
</metadata>
<g transform="translate(0.000000,512.000000) scale(0.100000,-0.100000)"
fill="#000000" stroke="none">
<path d="M1051 4358 c-51 -255 -95 -474 -97 -488 -4 -21 -37 -185 -49 -240
-17 -81 -96 -472 -100 -495 -2 -16 -41 -207 -85 -423 -44 -216 -82 -405 -85
-420 -2 -15 -40 -205 -84 -422 -44 -217 -82 -406 -85 -420 -2 -14 -10 -47 -16
-75 -6 -27 -13 -61 -15 -75 -4 -23 -17 -93 -30 -150 -5 -24 -8 -41 -20 -100
-2 -14 -27 -137 -56 -275 -28 -137 -53 -261 -55 -275 -3 -14 -9 -43 -14 -65
-5 -22 -10 -44 -10 -48 0 -9 2454 -3 2515 6 22 3 65 9 95 12 52 6 80 10 125
19 11 2 40 7 65 11 237 39 503 134 695 250 136 82 315 239 363 317 9 15 21 29
26 31 6 2 102 -35 214 -83 l203 -87 -173 -73 c-95 -40 -252 -106 -348 -146
-96 -41 -182 -78 -190 -82 -12 -7 -15 -34 -15 -131 0 -68 2 -124 6 -126 5 -3
797 329 894 375 11 5 45 20 75 33 l56 24 -1 116 c-1 64 -3 118 -5 120 -3 3
-139 62 -302 132 -164 70 -298 129 -298 131 0 1 14 43 30 92 16 50 30 97 30
105 0 9 5 19 12 23 6 4 127 7 269 7 183 0 259 3 262 11 2 6 3 135 2 286 -2
218 -6 288 -18 336 -69 258 -254 399 -511 390 -99 -4 -127 -8 -187 -33 -40
-16 -40 -16 -72 14 -82 76 -189 142 -290 178 l-59 22 53 25 c87 41 94 42 113
13 28 -42 75 -83 124 -106 35 -17 63 -22 121 -22 171 1 235 74 307 348 49 190
72 233 127 237 87 7 130 -106 106 -280 -10 -68 -48 -171 -80 -215 -11 -16 -19
-30 -17 -32 1 -2 41 -21 88 -43 63 -29 88 -37 98 -29 21 17 77 138 87 187 1 3
4 19 8 35 14 61 17 92 18 175 0 95 -6 144 -28 210 -35 107 -106 186 -193 215
-48 16 -150 22 -169 10 -14 -8 -15 -16 14 100 34 132 39 176 40 330 0 146 -5
191 -30 285 -73 277 -308 497 -650 608 -97 32 -246 66 -335 77 -30 4 -66 10
-80 12 -14 3 -536 8 -1160 10 l-1135 4 -94 -463z m2179 -62 c458 -66 655 -249
643 -599 -5 -140 -34 -240 -117 -393 -22 -42 -129 -152 -191 -196 -130 -92
-323 -167 -500 -193 -22 -4 -51 -8 -65 -11 -71 -13 -298 -18 -920 -18 -677 -1
-685 0 -684 19 1 24 6 50 33 185 12 58 24 116 26 130 3 14 19 90 35 170 17 80
33 156 35 170 5 34 20 108 44 215 10 50 22 106 25 125 3 19 15 80 27 135 11
55 23 111 25 125 15 86 28 136 36 141 12 8 1491 3 1548 -5z m989 -1361 c-27
-88 -65 -130 -112 -121 -61 12 -63 28 -11 72 27 21 68 58 92 82 25 23 46 41
48 39 2 -1 -6 -34 -17 -72z m-1139 -579 c19 -4 60 -12 90 -17 92 -17 97 -18
172 -45 257 -92 372 -258 370 -534 0 -58 -3 -118 -7 -135 -3 -16 -7 -39 -9
-50 -6 -43 -48 -153 -79 -207 -117 -209 -338 -351 -656 -423 -56 -13 -133 -27
-170 -30 -36 -4 -77 -9 -91 -12 -34 -7 -1700 -11 -1704 -4 -1 3 8 58 21 121
13 63 25 126 28 140 2 14 20 106 40 204 20 99 39 189 41 200 2 12 7 37 11 56
4 19 7 37 8 40 0 3 32 164 70 358 l70 353 880 -4 c484 -2 896 -7 915 -11z
m1350 -120 c53 -12 115 -51 153 -99 55 -67 70 -127 71 -291 l1 -141 -152 -1
c-133 -1 -153 1 -153 15 -4 222 -24 328 -95 503 -5 12 0 17 17 20 35 6 118 2
158 -6z"/>
</g>
</svg>
