<svg width="1920" height="828" fill="none" xmlns="http://www.w3.org/2000/svg"><g clip-path="url(#clip0)"><path fill="#262D36" d="M0-.022h1920v828H0z"/><path d="M-69 417.977c42.147-53.247 198.864-174.091 488.551-231.494 362.108-71.753 590.439 33.858 706.999 87.492 235.29 108.267 443.79 126.448 540.03 118.647 212.94-17.261 379.5-94.775 484.42-249.645" stroke="#3F3F3F"/><path d="M-415.999 462.978c47.425-88.874 223.767-290.574 549.73-386.384 407.453-119.762 664.375 56.512 795.532 146.033C1194.02 403.334 1428.62 433.68 1536.92 420.659 1776.53 391.848 1963.94 262.47 2082 3.978" stroke="#3F3F3F"/><path d="M2419.44-436.542c-109.81 137.771-452.46 481.468-944.59 754.09C859.685 658.325 600.183 543.549 467.471 485.566c-267.891-117.043-571.458-50.841-725.367 15.106-340.534 145.912-661.371 399.923-953.724 791.658" stroke="#353535"/><path d="M2988.34-631c-148.11 218.214-589.35 748.281-1169.42 1122.836-725.1 468.193-968.216 213.291-1092.723 84.183C474.868 315.401 141.803 368.017-34.921 451.36-425.937 635.76-822.623 1013.43-1223 1638.03" stroke="#353535"/></g><defs><clipPath id="clip0"><path fill="#fff" d="M0 0h1920v828H0z"/></clipPath></defs></svg>