<svg width="25" height="22" fill="none" xmlns="http://www.w3.org/2000/svg"><g clip-path="url(#clip0)"><path d="M21.906 13.75H9.183l.284 1.375h11.65c.668 0 1.164.614 1.016 1.26l-.24 1.043a2.405 2.405 0 011.37 2.166c0 1.34-1.107 2.425-2.465 2.406-1.295-.019-2.36-1.059-2.394-2.34-.02-.7.264-1.334.729-1.785h-9.1c.451.437.73 1.045.73 1.719 0 1.367-1.15 2.467-2.546 2.403-1.238-.057-2.246-1.047-2.31-2.273a2.4 2.4 0 011.217-2.217L4.074 2.75H1.043A1.036 1.036 0 010 1.719V1.03C0 .461.466 0 1.042 0h4.45c.495 0 .921.345 1.02.825L6.91 2.75h17.048c.668 0 1.164.615 1.016 1.26l-2.052 8.937a1.04 1.04 0 01-1.016.803zm-4.413-5.5h-1.868V5.672a.518.518 0 00-.52-.516h-1.043c-.287 0-.52.231-.52.516V8.25h-1.868a.515.515 0 00-.368.88l2.91 2.88a.525.525 0 00.736 0l2.909-2.88a.515.515 0 00-.368-.88z" fill="#fff"/></g><defs><clipPath id="clip0"><path fill="#fff" d="M0 0h25v22H0z"/></clipPath></defs></svg>