<svg width="120" height="120" fill="none" xmlns="http://www.w3.org/2000/svg"><path d="M26.25 19.537a2.887 2.887 0 01-1.725-5.175A57.975 57.975 0 0160 3.75c9.975 0 24.3 1.687 35.625 9.825a2.887 2.887 0 01.675 4.012 2.924 2.924 0 01-4.05.638A56.25 56.25 0 0060 9.487a52.5 52.5 0 00-31.875 9.45 2.775 2.775 0 01-1.875.6z" fill="#FE9E45"/><path d="M105.863 45.975a2.928 2.928 0 01-2.363-1.238C97.013 35.587 85.425 23.4 60 23.4a52.5 52.5 0 00-43.612 21.375 2.888 2.888 0 01-4.013.638 2.85 2.85 0 01-.562-4.163A58.274 58.274 0 0160 17.663c21.038 0 36.788 7.8 48.15 23.774a2.885 2.885 0 01-.712 4.013 2.966 2.966 0 01-1.575.525z" fill="#FE9E45"/><path d="M46.05 116.25a2.919 2.919 0 01-2.7-1.837 2.817 2.817 0 01.675-3.16c.282-.261.613-.462.975-.59 16.388-6.3 26.25-19.2 26.25-34.538A10.5 10.5 0 0060 64.875c-6.975 0-10.35 3.75-11.25 12.563A16.013 16.013 0 0131.8 91.8a16.013 16.013 0 01-16.2-17.212A43.913 43.913 0 0160 31.463 45 45 0 01105 76.2a69.977 69.977 0 01-5.212 24.375 2.927 2.927 0 01-3.75 1.538 2.855 2.855 0 01-1.765-2.654c.002-.377.08-.75.227-1.096A64.687 64.687 0 0099.263 76.2 39.188 39.188 0 0060 37.2a38.175 38.175 0 00-38.925 37.5 10.388 10.388 0 0010.463 11.475 10.276 10.276 0 0011.25-9.3c1.35-11.662 7.087-17.587 17.1-17.587a16.162 16.162 0 0116.95 17.1c0 17.775-11.25 32.7-30 39.862-.262.03-.526.03-.788 0z" fill="#FE9E45"/><path d="M74.137 113.55a3.038 3.038 0 01-1.95-.75 2.846 2.846 0 01-.625-3.122c.145-.348.358-.663.625-.928A47.361 47.361 0 0085.462 76.2c0-5.85-1.8-24.938-25.125-24.938a25.613 25.613 0 00-18.525 7.013A23.14 23.14 0 0034.95 75a2.887 2.887 0 01-2.888 2.85A2.849 2.849 0 0129.175 75 28.988 28.988 0 0137.5 54.225a31.276 31.276 0 0122.5-8.7c22.8 0 30.9 16.5 30.9 30.675a52.837 52.837 0 01-14.625 36.3 2.804 2.804 0 01-2.137 1.05z" fill="#FE9E45"/><path d="M32.475 104.025a52.942 52.942 0 01-5.85-.338 2.864 2.864 0 01-2.506-2.043 2.873 2.873 0 01.99-3.08 2.87 2.87 0 012.153-.576c9.338 1.05 16.688-.6 21.9-4.95a23.888 23.888 0 007.95-16.988 2.813 2.813 0 013.075-2.662 2.925 2.925 0 012.7 3.037A29.586 29.586 0 0152.838 97.5a30.749 30.749 0 01-20.362 6.525z" fill="#FE9E45"/></svg>