<svg width="100" height="100" fill="none" xmlns="http://www.w3.org/2000/svg"><path d="M90.723 78.906L70.215 61.621c1.497-3.19 1.937-6.56 1.318-10.107-.618-3.549-2.197-6.625-4.736-9.229l-10.059-9.863c-2.018-2.018-4.101-3.646-6.25-4.883-2.148-1.237-3.808-1.953-4.98-2.148L43.75 25c0 .26.065.635.195 1.123s.733 1.546 1.807 3.174c1.074 1.627 2.49 3.32 4.248 5.078l10.352 12.89c.52.326.732 1.14.634 2.442-.097 1.302-.634 2.441-1.611 3.418l-12.5-12.5c-1.497-1.497-3.288-2.767-5.371-3.809-2.083-1.041-3.776-1.692-5.078-1.953l-2.051-.488c.065.52.195 1.237.39 2.148.196.912.83 2.474 1.905 4.688 1.074 2.214 2.392 4.102 3.955 5.664l12.5 12.5c-1.042 1.042-2.165 1.628-3.37 1.758-1.204.13-2.034-.13-2.49-.781L34.376 50c-1.888-1.888-3.613-3.353-5.176-4.395-1.562-1.041-2.637-1.595-3.222-1.66L25 43.75c.065.456.195 1.107.39 1.953.196.846.912 2.409 2.15 4.688 1.236 2.278 2.864 4.394 4.882 6.347l9.96 9.961c2.54 2.604 5.584 4.216 9.132 4.834 3.548.619 6.884.18 10.01-1.318l17.48 20.508C70.28 96.908 60.612 100 50 100c-6.77 0-13.249-1.318-19.434-3.955C24.382 93.408 19.06 89.86 14.6 85.4c-4.46-4.46-8.008-9.782-10.645-15.966C1.318 63.249 0 56.77 0 50c0-6.77 1.318-13.249 3.955-19.434C6.592 24.382 10.14 19.06 14.6 14.6c4.46-4.46 9.781-8.008 15.966-10.645C36.751 1.318 43.23 0 50 0c6.77 0 13.249 1.318 19.434 3.955C75.618 6.592 80.94 10.14 85.4 14.6c4.46 4.46 8.008 9.781 10.645 15.966C98.682 36.751 100 43.23 100 50c0 10.612-3.092 20.247-9.277 28.906z" fill="#FE9E45"/></svg>