<svg width="45" height="45" fill="none" xmlns="http://www.w3.org/2000/svg"><path d="M28.125 31.875a1.875 1.875 0 100 3.75 1.875 1.875 0 000-3.75zm-11.25 0H11.25a1.875 1.875 0 100 3.75h5.625a1.875 1.875 0 100-3.75zm16.875 0a1.875 1.875 0 100 3.75 1.875 1.875 0 000-3.75zm-5.625-11.25a1.875 1.875 0 100 3.75 1.875 1.875 0 000-3.75zm-11.25 0H11.25a1.875 1.875 0 100 3.75h5.625a1.875 1.875 0 100-3.75zM33.75 9.375a1.875 1.875 0 100 3.75 1.875 1.875 0 000-3.75zm0 11.25a1.875 1.875 0 100 3.75 1.875 1.875 0 000-3.75zm7.5-11.25a5.625 5.625 0 00-5.625-5.625H9.375A5.625 5.625 0 003.75 9.375v3.75a5.625 5.625 0 001.463 3.75 5.625 5.625 0 00-1.463 3.75v3.75a5.625 5.625 0 001.463 3.75 5.625 5.625 0 00-1.463 3.75v3.75a5.625 5.625 0 005.625 5.625h26.25a5.625 5.625 0 005.625-5.625v-3.75a5.625 5.625 0 00-1.462-3.75 5.625 5.625 0 001.462-3.75v-3.75a5.625 5.625 0 00-1.462-3.75 5.625 5.625 0 001.462-3.75v-3.75zm-3.75 26.25a1.875 1.875 0 01-1.875 1.875H9.375A1.875 1.875 0 017.5 35.625v-3.75A1.875 1.875 0 019.375 30h26.25a1.875 1.875 0 011.875 1.875v3.75zm0-11.25a1.875 1.875 0 01-1.875 1.875H9.375A1.875 1.875 0 017.5 24.375v-3.75a1.875 1.875 0 011.875-1.875h26.25a1.875 1.875 0 011.875 1.875v3.75zm0-11.25A1.875 1.875 0 0135.625 15H9.375A1.875 1.875 0 017.5 13.125v-3.75A1.875 1.875 0 019.375 7.5h26.25A1.875 1.875 0 0137.5 9.375v3.75zm-9.375-3.75a1.875 1.875 0 100 3.75 1.875 1.875 0 000-3.75zm-11.25 0H11.25a1.875 1.875 0 100 3.75h5.625a1.875 1.875 0 100-3.75z" fill="#fff"/></svg>