<svg width="204" height="60" fill="none" xmlns="http://www.w3.org/2000/svg"><rect width="60" height="60" rx="5" fill="#fff"/><path d="M40.348 29.172c1.504.512 2.672 1.344 3.504 2.496.832 1.152 1.248 2.592 1.248 4.32 0 3.392-1.312 6-3.936 7.824-2.592 1.792-6.144 2.688-10.656 2.688H14.332l6.72-33.6h14.88c3.392 0 6 .64 7.824 1.92 1.856 1.248 2.784 3.072 2.784 5.472 0 2.176-.576 4.032-1.728 5.568-1.12 1.504-2.608 2.608-4.464 3.312zM25.036 16.788l-2.16 10.752h9.84c2.72 0 4.864-.544 6.432-1.632 1.6-1.12 2.4-2.736 2.4-4.848 0-1.44-.576-2.512-1.728-3.216-1.12-.704-2.752-1.056-4.896-1.056h-9.888zm5.808 25.824c3.04 0 5.376-.56 7.008-1.68 1.664-1.152 2.496-2.784 2.496-4.896 0-1.664-.592-2.848-1.776-3.552-1.152-.704-2.896-1.056-5.232-1.056H22.108L19.9 42.612h10.944z" fill="#481C03"/><path d="M41.36 38.546l-.21-.09v2.098l.09.039 5.18 2.237-5.179 2.206-.091.039V47.327l.21-.09 7.7-3.322.09-.04v-1.957l-.09-.039-7.7-3.333zm-.21-.285v.15h8v-3.648c0-.855-.161-1.615-.489-2.277v-.001a3.725 3.725 0 00-1.409-1.557c-.605-.375-1.308-.56-2.102-.56-.794 0-1.497.185-2.102.56a3.654 3.654 0 00-1.398 1.557c-.335.662-.5 1.423-.5 2.278v3.498zm2.37-5.144h0l.002-.001c.392-.426.929-.645 1.628-.645.699 0 1.24.219 1.64.646.393.42.597.993.597 1.734v1.478h-4.474v-1.478c0-.74.207-1.313.608-1.733zm5.514-4.44h0v-.002a6.64 6.64 0 00.248-1.812c0-.718-.108-1.337-.331-1.852-.222-.512-.524-.903-.912-1.165a2.256 2.256 0 00-1.294-.4c-.54 0-.986.143-1.32.445-.32.28-.554.62-.702 1.017a12.69 12.69 0 00-.423 1.458h0v.003c-.124.56-.246.97-.364 1.234a.613.613 0 01-.196.245.449.449 0 01-.262.075c-.21 0-.378-.089-.514-.286-.136-.205-.216-.54-.216-1.027 0-.681.193-1.368.586-2.06l.084-.148-.158-.065-1.353-.55-.117-.047-.067.107c-.23.367-.404.793-.525 1.275-.12.481-.18.974-.18 1.477 0 .719.108 1.338.331 1.853h0c.222.505.529.893.924 1.154.385.259.817.388 1.293.388.54 0 .988-.139 1.33-.432h0l.001-.001c.326-.287.564-.63.712-1.028.143-.382.284-.87.424-1.46h0c.088-.38.167-.675.238-.888v-.002a1.36 1.36 0 01.267-.496h0l.005-.006a.403.403 0 01.334-.164c.19 0 .346.087.477.292.125.207.198.547.198 1.043 0 .439-.07.878-.213 1.318-.142.442-.33.82-.561 1.134l-.11.15.17.076 1.341.605.109.049.072-.095c.278-.363.502-.836.674-1.412z" fill="#FE9E45" stroke="#fff" stroke-width=".3"/><path d="M95.42 29.08c1.2.38 2.14 1.02 2.82 1.92.68.88 1.02 1.97 1.02 3.27 0 1.84-.72 3.26-2.16 4.26-1.42.98-3.5 1.47-6.24 1.47H80V19h10.26c2.56 0 4.52.49 5.88 1.47 1.38.98 2.07 2.31 2.07 3.99 0 1.02-.25 1.93-.75 2.73-.48.8-1.16 1.43-2.04 1.89zm-10.59-6.42v4.95h4.83c1.2 0 2.11-.21 2.73-.63.62-.42.93-1.04.93-1.86 0-.82-.31-1.43-.93-1.83-.62-.42-1.53-.63-2.73-.63h-4.83zm5.67 13.68c1.28 0 2.24-.21 2.88-.63.66-.42.99-1.07.99-1.95 0-1.74-1.29-2.61-3.87-2.61h-5.67v5.19h5.67zM119.199 36.1V40h-16.26V19h15.87v3.9h-11.04v4.56h9.75v3.78h-9.75v4.86h11.43zM127.416 22.96h-6.72V19h18.3v3.96h-6.72V40h-4.86V22.96z" fill="#fff"/><path d="M162.68 19l-9.09 21h-4.8l-9.06-21h5.25l6.39 15 6.48-15h4.83zM163.833 19h9.54c2.28 0 4.29.44 6.03 1.32 1.76.86 3.12 2.08 4.08 3.66.98 1.58 1.47 3.42 1.47 5.52 0 2.1-.49 3.94-1.47 5.52-.96 1.58-2.32 2.81-4.08 3.69-1.74.86-3.75 1.29-6.03 1.29h-9.54V19zm9.3 17.01c2.1 0 3.77-.58 5.01-1.74 1.26-1.18 1.89-2.77 1.89-4.77 0-2-.63-3.58-1.89-4.74-1.24-1.18-2.91-1.77-5.01-1.77h-4.44v13.02h4.44zM194.918 40.36c-1.66 0-3.27-.22-4.83-.66-1.54-.46-2.78-1.05-3.72-1.77l1.65-3.66c.9.66 1.97 1.19 3.21 1.59 1.24.4 2.48.6 3.72.6 1.38 0 2.4-.2 3.06-.6.66-.42.99-.97.99-1.65 0-.5-.2-.91-.6-1.23-.38-.34-.88-.61-1.5-.81-.6-.2-1.42-.42-2.46-.66-1.6-.38-2.91-.76-3.93-1.14-1.02-.38-1.9-.99-2.64-1.83-.72-.84-1.08-1.96-1.08-3.36 0-1.22.33-2.32.99-3.3.66-1 1.65-1.79 2.97-2.37 1.34-.58 2.97-.87 4.89-.87 1.34 0 2.65.16 3.93.48 1.28.32 2.4.78 3.36 1.38l-1.5 3.69c-1.94-1.1-3.88-1.65-5.82-1.65-1.36 0-2.37.22-3.03.66-.64.44-.96 1.02-.96 1.74s.37 1.26 1.11 1.62c.76.34 1.91.68 3.45 1.02 1.6.38 2.91.76 3.93 1.14 1.02.38 1.89.98 2.61 1.8.74.82 1.11 1.93 1.11 3.33 0 1.2-.34 2.3-1.02 3.3-.66.98-1.66 1.76-3 2.34-1.34.58-2.97.87-4.89.87z" fill="#FE9E45"/></svg>