<svg width="120" height="120" fill="none" xmlns="http://www.w3.org/2000/svg"><path fill-rule="evenodd" clip-rule="evenodd" d="M60.097 15c-11.292 0-21.58 3.73-27.667 6.777-.55.275-1.063.546-1.54.805-.945.515-1.75.995-2.39 1.418l6.925 10.195 3.26 1.297c12.74 6.428 29.825 6.428 42.567 0l3.7-1.92L91.5 24a38.774 38.774 0 00-4.223-2.392C81.22 18.593 71.177 15 60.1 15h-.003zM43.992 26.54a61.416 61.416 0 01-7.252-1.82c5.702-2.532 14.2-5.22 23.357-5.22 6.343 0 12.34 1.29 17.3 2.925-5.812.817-12.015 2.205-17.925 3.912-4.65 1.346-10.085 1.2-15.48.203zm39.9 12.66l-.615.31c-14.015 7.07-32.605 7.07-46.62 0l-.582-.295c-21.055 23.102-37.13 65.778 24.022 65.778 61.153 0 44.685-43.473 23.795-65.793zM57.5 60a5 5 0 000 10V60zm5-5v-2.5h-5V55a10 10 0 000 20v10a5.005 5.005 0 01-4.718-3.332 2.499 2.499 0 10-4.712 1.664A10.002 10.002 0 0057.5 90v2.5h5V90a10 10 0 000-20V60a5.005 5.005 0 014.717 3.333 2.5 2.5 0 104.713-1.666A10.002 10.002 0 0062.5 55zm0 20v10a5 5 0 000-10z" fill="#FE9E45"/></svg>