<svg width="101" height="101" fill="none" xmlns="http://www.w3.org/2000/svg"><circle cx="50.995" cy="50.994" r="49" stroke="#FE9E45" stroke-width="2"/><g clip-path="url(#clip0)"><path d="M66.55 42.244c0-12.082-11.316-21.875-25.278-21.875-13.96 0-25.277 9.793-25.277 21.875 0 4.685 1.717 9.016 4.614 12.575-1.624 4.134-4.308 7.407-4.347 7.454-.13.155-.218.35-.252.56a1.22 1.22 0 00.064.624c.075.197.2.364.358.481.159.118.345.18.535.18 4.445 0 8.134-1.674 10.783-3.415 3.913 2.152 8.542 3.416 13.522 3.416 13.962 0 25.278-9.794 25.278-21.875zM39.328 55.369v-2.227c-1.372-.08-2.707-.619-3.812-1.552-.474-.4-.499-1.2-.07-1.66l1.428-1.533c.337-.36.838-.377 1.231-.1.47.331 1.004.51 1.558.51h3.417c.79 0 1.434-.81 1.434-1.804 0-.814-.44-1.53-1.066-1.74l-5.469-1.846c-2.26-.763-3.838-3.202-3.838-5.933 0-3.352 2.315-6.075 5.186-6.161v-2.204c0-.605.435-1.094.972-1.094h1.944c.538 0 .973.49.973 1.094v2.227c1.372.08 2.706.616 3.812 1.552.474.4.498 1.199.07 1.66l-1.429 1.532c-.336.36-.837.377-1.23.1a2.683 2.683 0 00-1.559-.509h-3.416c-.79 0-1.434.81-1.434 1.803 0 .814.439 1.53 1.066 1.74l5.469 1.847c2.259.763 3.837 3.202 3.837 5.932 0 3.353-2.315 6.076-5.185 6.162v2.204c0 .604-.435 1.093-.972 1.093H40.3c-.537 0-.972-.49-.972-1.093zm42.05 16.951c2.9-3.558 4.617-7.891 4.617-12.576 0-9.152-6.5-16.98-15.718-20.244.105.902.162 1.817.162 2.744 0 14.474-13.084 26.25-29.167 26.25-1.31 0-2.59-.106-3.856-.257 3.832 7.862 12.822 13.382 23.3 13.382 4.981 0 9.61-1.264 13.523-3.416 2.65 1.74 6.338 3.416 10.783 3.416.39 0 .74-.261.892-.662.155-.402.08-.867-.188-1.185-.038-.046-2.725-3.315-4.348-7.452z" fill="#fff"/></g><defs><clipPath id="clip0"><path fill="#fff" transform="translate(15.995 15.994)" d="M0 0h70v70H0z"/></clipPath></defs></svg>