<svg width="101" height="101" fill="none" xmlns="http://www.w3.org/2000/svg"><circle cx="50.995" cy="50.994" r="49" stroke="#FE9E45" stroke-width="2"/><path d="M24.745 29.492l26.263-7.665 26.237 7.665V45.21c0 16.52-10.573 29.728-26.246 34.95-15.677-5.22-26.254-18.433-26.254-34.957V29.492z" stroke="#fff" stroke-width="4" stroke-linejoin="round"/><path d="M65.366 44.137a1.27 1.27 0 00-.137-.486 1.231 1.231 0 00-.314-.388 1.19 1.19 0 00-.929-.255c-2.613.43-8.739 2.923-12.991 2.923-4.253 0-10.379-2.493-12.992-2.923a1.166 1.166 0 00-.928.253 1.23 1.23 0 00-.314.389c-.078.15-.125.316-.138.485-.213 2.37-.628 8.678-.628 9.634 0 1.283 5.208 4.225 9 4.225 3.678 0 4.425-4.225 6-4.225 1.575 0 2.322 4.225 6 4.225 3.792 0 9-2.942 9-4.225 0-.956-.416-7.264-.629-9.632zm-17.881 7.547c-.53.492-2.003 1.655-3.797 1.291-1.794-.363-2.878-2.046-3.249-2.718a.411.411 0 01.066-.49c.53-.493 2.003-1.656 3.798-1.292 1.794.363 2.879 2.046 3.25 2.719a.413.413 0 01-.068.49zm14.065-1.427c-.369.674-1.453 2.355-3.249 2.718-1.794.364-3.268-.8-3.796-1.291a.407.407 0 01-.068-.49c.37-.675 1.454-2.356 3.25-2.72 1.793-.362 3.268.8 3.796 1.292a.404.404 0 01.067.49z" fill="#fff"/></svg>