<svg width="353" height="370" fill="none" xmlns="http://www.w3.org/2000/svg"><path d="M253 25c-45.833 0-83.333 30-83.333 66.667 0 18.333 9.166 35 23.333 45.833 0 5-3.333 18.333-23.333 37.5 20-.833 38.333-8.333 54.166-20.833 9.167 2.5 19.167 4.166 29.167 4.166 45.833 0 83.333-30 83.333-66.666C336.333 55 298.833 25 253 25zm0 116.667c-36.667 0-66.667-22.5-66.667-50s30-50 66.667-50 66.667 22.5 66.667 50-30 50-66.667 50zm1.667-87.5c-7.5 0-13.334 1.666-17.5 4.166-5 3.334-7.5 8.334-6.667 14.167h16.667c0-2.5.833-4.167 2.5-5 1.666-.833 3.333-1.667 5.833-1.667s5 .834 6.667 2.5c1.666 1.667 2.5 3.334 2.5 5.834 0 2.5-.834 4.166-1.667 5.833-1.667 1.667-3.333 3.333-5 4.167-4.167 2.5-7.5 5-9.167 6.666-3.333 2.5-4.166 5-4.166 9.167h16.666c0-2.5.834-4.167.834-5.833.833-1.667 2.5-2.5 4.166-4.167 4.167-1.667 6.667-4.167 9.167-7.5s3.333-6.667 3.333-10c0-5.833-2.5-10.833-6.666-14.167-3.334-2.5-10-4.166-17.5-4.166zm-10 54.166V125h16.666v-16.667h-16.666zM99.375 355.625c-43.594 0-90.625-27.344-90.625-87.344 0-60 47.031-87.343 90.625-87.343 24.219 0 46.563 7.968 63.125 22.5 17.969 15.937 27.5 38.437 27.5 64.843 0 26.407-9.531 48.75-27.5 64.688-16.562 14.531-39.062 22.656-63.125 22.656z" fill="#FE9E45"/><path d="M99.375 355.625c-43.594 0-90.625-27.344-90.625-87.344 0-60 47.031-87.343 90.625-87.343 24.219 0 46.563 7.968 63.125 22.5 17.969 15.937 27.5 38.437 27.5 64.843 0 26.407-9.531 48.75-27.5 64.688-16.562 14.531-39.062 22.656-63.125 22.656z" fill="#FE9E45"/><path d="M174.203 216.359c8.328 13.438 12.672 29.438 12.672 47.235 0 26.406-9.531 48.75-27.5 64.687-16.563 14.531-39.063 22.657-63.125 22.657-28.219 0-57.813-11.485-75.281-35.844 16.812 27.593 48.437 40.531 78.406 40.531 24.063 0 46.563-8.125 63.125-22.656 17.969-15.938 27.5-38.281 27.5-64.688 0-19.906-5.422-37.594-15.797-51.922z" fill="#DD6E25"/><path opacity=".66" d="M10.125 287.359c1.563-4.078 8.469-4.14 13.578-1.671 9.89 4.796 8.719 15.296 13.672 17.39 4.953 2.094 20.594-10.734 42.578-12.765 2.469-.235 17.047-2.063 18.484 4.062.563 2.422-3.562 2.891-3.562 2.891-8.938 3.312-18.031 6.687-26.031 11.922-9.078 5.921-17.016 14.296-27.563 16.765-4.11.953-8.75.813-12.093-1.734-4.157-3.125-5.079-8.86-6.594-13.844a45.58 45.58 0 00-8.375-15.625" fill="url(#paint0_linear)"/><path d="M9.938 287.344c-2.844 3.453 3.203 12.625 4.28 17.296 2.595 11.282 0 14.063-.202 24.094-.172 11.031 3.125 20.313 11.531 26.235 7.906 5.609 16.61 6.25 28.797 2.656 12.187-3.594 20.422-5.328 21.047-11.328a5.738 5.738 0 00-3.25-5.985 5.603 5.603 0 002.734-2.797c2.906-6.937-2.89-8.406-2.89-8.406.796-.953 1.468-2 2-3.125 1.734-3.453 1.453-8.14-3.547-9.672-2.297-.703-2.922-.328-2.922-.328a25.355 25.355 0 018.36-5.703c8.405-3.609 18.374-5.797 20.858-7.906 3.61-3.125 3.829-9.141-2.546-10.938-9.157-2.687-26 3.563-36.25 10.078-10.25 6.516-19.657 10.032-22.782 8.844-3.125-1.187-5.062-3.125-6.25-7.812-2.203-8.719-3.906-12.094-7.64-15.36-3.094-2.656-9.14-2.5-11.328.157z" fill="#FFBB7C"/><path d="M60.75 321.219s-2.297-1.563 6.875-8.891c6.25-5.016 9.86-5.922 17.344-7.812 15.125-3.704 14.172-8.469 14.172-8.469.812 7.015-6.125 8.578-11.203 10.172-.532.156-1.032.359-1.563.484-17.39 4.438-23.469 15.906-25.625 14.516z" fill="url(#paint1_linear)"/><path d="M75 338.609a9.534 9.534 0 001.016-7.515 7.245 7.245 0 00-2.75-3.672c.187-.25.375-.484.546-.766a7.696 7.696 0 00.547-7.265 7.416 7.416 0 00-5.296-3.375 5.738 5.738 0 013.03 3.64 11.01 11.01 0 01-.78 5.672 7.34 7.34 0 01-5.844 4.485c-3.781.75-2.625 2.312-2.625 2.312.328 1.25 4.797.094 8.187-2.438.953.5 1.672 1.36 2.016 2.376.36 1.578.14 3.25-.61 4.687a8.566 8.566 0 01-5.515 4.688c-3.36.921-2.438 2.156-2.438 2.156s.157 2.656 7.063-1.719c.812 1.563 1.89 5.047-.266 7.297-7.312 7.703-28.86 10.672-28.86 10.672 10.938 0 25.97-4.219 30.626-8.078a7.537 7.537 0 002.89-5.875 7.115 7.115 0 00-2.14-5.766c.437-.469.844-.969 1.203-1.516z" fill="url(#paint2_linear)"/><path d="M120.109 281.422a2.938 2.938 0 01-1.359-.625 51.446 51.446 0 00-24.375-10.719 51.265 51.265 0 00-26.563 2.437c-.468.188-.968.25-1.468.172a2.88 2.88 0 01-2.281-2.078 2.781 2.781 0 01.906-2.89c16.562-13.75 41.125-11.469 54.875 5.093a41.428 41.428 0 013.094 4.282 2.804 2.804 0 010 3.031 2.882 2.882 0 01-2.829 1.297zM126.203 218.609c6.547 0 12.5 5.532 12.5 14.719 0 9.188-5.953 14.703-12.5 14.703s-12.5-5.531-12.5-14.703 5.953-14.719 12.5-14.719zM72.094 204.375c-6.547 0-12.5 5.531-12.5 14.703s5.953 14.719 12.5 14.719c6.562 0 12.5-5.531 12.5-14.719 0-9.187-5.938-14.703-12.5-14.703zM62.078 186.609a4.151 4.151 0 01-.25-3.828 4.02 4.02 0 013.125-2.25 33.426 33.426 0 0124.266 5.61c2.64 1.812 4.984 4 6.969 6.515.125.156.234.328.343.516a3.85 3.85 0 01-.828 5.078 4.297 4.297 0 01-5.625-.125l.656-1.063-.796.938a39.781 39.781 0 00-24.313-9.25 4.176 4.176 0 01-3.61-2.063l.063-.078zM145.313 214.563a4.138 4.138 0 002.093-3.125 4.045 4.045 0 00-1.562-3.5 33.446 33.446 0 00-23.969-7.157 31.733 31.733 0 00-9.281 2.219l-.563.266c-1.734.922-2.5 3-1.781 4.828a4.282 4.282 0 004.922 2.656v-1.25l.219 1.219a39.774 39.774 0 0125.687 3.859 4.222 4.222 0 004.172 0l.063-.015z" fill="#422B0D"/><defs><linearGradient id="paint0_linear" x1="54.645" y1="336.266" x2="54.255" y2="284.109" gradientUnits="userSpaceOnUse"><stop stop-color="#BF360C"/><stop offset="1" stop-color="#BF360C" stop-opacity=".2"/></linearGradient><linearGradient id="paint1_linear" x1="61.377" y1="317.864" x2="100.736" y2="298.317" gradientUnits="userSpaceOnUse"><stop offset=".13" stop-color="#DA6727"/><stop offset="1" stop-color="#FFC400"/></linearGradient><linearGradient id="paint2_linear" x1="59.342" y1="356.672" x2="59.67" y2="297.344" gradientUnits="userSpaceOnUse"><stop offset=".13" stop-color="#DA6727"/><stop offset="1" stop-color="#FFC400"/></linearGradient></defs></svg>