<svg width="120" height="120" fill="none" xmlns="http://www.w3.org/2000/svg"><path d="M111.947 8.967a1.118 1.118 0 00-.832-.858c-13.728-3.356-45.445 8.604-62.63 25.782a74.294 74.294 0 00-8.35 9.867c-5.3-.469-10.6-.077-15.115 1.891C12.277 51.258 8.566 65.892 7.533 72.188a2.26 2.26 0 002.472 2.625l20.464-2.257c.014 1.542.107 3.083.279 4.617a4.577 4.577 0 001.335 2.812l7.925 7.906a4.592 4.592 0 002.812 1.336 45.39 45.39 0 004.592.279l-2.246 20.437a2.26 2.26 0 002.625 2.473c6.284-1.008 20.944-4.718 26.52-17.461 1.969-4.517 2.372-9.79 1.917-15.064a74.447 74.447 0 009.893-8.353c17.238-17.151 29.13-48.161 25.826-62.57zm-43.024 42.11a11.25 11.25 0 1115.904 0 11.236 11.236 0 01-15.904 0z" fill="#FE9E45"/><path d="M39.469 93.616c-1.285 1.287-3.345 1.789-5.825 2.218-5.57.949-10.49-3.865-9.49-9.497.383-2.135 1.512-5.128 2.215-5.832a1.024 1.024 0 00-.855-1.746 14.062 14.062 0 00-8.233 4.013c-5.51 5.515-6.031 25.978-6.031 25.978s20.475-.52 25.985-6.035a13.99 13.99 0 004.015-8.24c.087-.98-1.106-1.564-1.781-.859z" fill="#FE9E45"/></svg>