<svg width="120" height="120" fill="none" xmlns="http://www.w3.org/2000/svg"><path d="M119.658 75.044c.156 1.405.234 2.654.234 3.746 0 1.093-.078 2.342-.234 3.747h-7.493a47.416 47.416 0 01-1.054 5.62l6.907 2.926c-.702 2.263-1.639 4.566-2.809 6.907l-7.025-2.927a29.852 29.852 0 01-3.161 4.8l5.269 5.269a33.611 33.611 0 01-5.269 5.268l-5.268-5.268a29.928 29.928 0 01-4.8 3.161l2.927 6.907c-2.342 1.249-4.644 2.224-6.907 2.927l-2.927-6.907a47.412 47.412 0 01-5.62 1.053v7.493c-1.405.156-2.653.234-3.746.234s-2.342-.078-3.746-.234v-7.493a47.417 47.417 0 01-5.62-1.053l-2.81 6.907c-2.341-.703-4.683-1.678-7.024-2.927l2.927-6.907a25.989 25.989 0 01-4.683-3.161L52.34 110.4a33.641 33.641 0 01-5.268-5.268l5.268-5.269a46.186 46.186 0 01-3.16-4.8l-6.908 2.927c-1.249-2.341-2.224-4.644-2.927-6.907l7.025-2.927a35.987 35.987 0 01-1.171-5.62h-7.493c-.156-1.404-.234-2.653-.234-3.746 0-1.092.078-2.341.234-3.746H45.2a35.992 35.992 0 011.17-5.62l-7.024-2.926c.703-2.264 1.678-4.566 2.927-6.908l6.907 2.927a46.207 46.207 0 013.161-4.8l-5.268-5.268a33.635 33.635 0 015.268-5.268l5.386 5.268a25.978 25.978 0 014.683-3.161l-2.927-7.025a43.947 43.947 0 017.024-2.81l2.81 6.908a28.482 28.482 0 015.62-1.054v-7.492c1.404-.156 2.653-.234 3.746-.234s2.341.078 3.746.234v7.492a28.48 28.48 0 015.62 1.054l2.927-6.907c2.263.702 4.565 1.639 6.907 2.81l-2.927 7.024a46.225 46.225 0 014.8 3.16l5.268-5.267a33.605 33.605 0 015.269 5.268l-5.269 5.268a29.86 29.86 0 013.161 4.8l7.025-2.927c1.17 2.342 2.107 4.644 2.809 6.908l-6.907 2.926c.468 1.874.82 3.747 1.054 5.62h7.493zM78.682 60.059c-5.151 0-9.561 1.834-13.23 5.502-3.668 3.668-5.502 8.078-5.502 13.23 0 5.15 1.834 9.56 5.503 13.228 3.668 3.669 8.078 5.503 13.229 5.503s9.56-1.834 13.23-5.503c3.667-3.668 5.502-8.078 5.502-13.229 0-5.15-1.835-9.56-5.503-13.229-3.668-3.668-8.078-5.502-13.23-5.502zM52.34 35.005l-1.404 3.63c-.235.468-.605.819-1.113 1.053-.507.234-.995.234-1.463 0l-6.673-2.693a18.252 18.252 0 01-4.8 4.683l2.81 6.673c.234.547.234 1.054 0 1.522-.235.469-.586.82-1.054 1.054l-3.63 1.522c-.468.234-.956.234-1.463 0-.507-.234-.878-.586-1.112-1.054l-2.81-6.673c-1.248.234-2.38.351-3.395.351-.936 0-2.03-.117-3.278-.351l-2.81 6.673c-.156.468-.488.82-.995 1.054-.507.234-1.034.234-1.58 0l-3.513-1.522c-.546-.156-.917-.488-1.112-.995a2.432 2.432 0 01-.058-1.58l2.81-6.557a20.03 20.03 0 01-4.8-4.8l-6.674 2.81c-.468.156-.956.136-1.463-.059a1.997 1.997 0 01-1.112-.995L.243 35.122c-.234-.546-.254-1.073-.059-1.58.195-.508.566-.84 1.113-.996l6.556-2.81c-.235-1.248-.352-2.38-.352-3.395 0-.936.117-2.068.352-3.395l-6.674-2.692A2.016 2.016 0 01.184 19.2c-.195-.468-.214-.976-.058-1.522l1.522-3.63c.234-.467.585-.819 1.053-1.053.469-.234.976-.234 1.522 0l6.673 2.693a16.723 16.723 0 014.683-4.683l-2.692-6.673c-.234-.547-.254-1.054-.059-1.522.195-.469.566-.82 1.112-1.054L17.57.234c.468-.234.956-.234 1.463 0 .507.234.878.586 1.112 1.054l2.693 6.673c1.249-.234 2.38-.351 3.395-.351 1.015 0 2.146.117 3.395.351l2.693-6.673c.234-.547.605-.917 1.112-1.112.507-.195.995-.176 1.464.058l3.629 1.522c.546.156.917.488 1.112.995.195.508.176.995-.058 1.464l-2.693 6.673a20.03 20.03 0 014.8 4.8l6.556-2.81a2.432 2.432 0 011.58.059c.508.195.84.526.995.995l1.522 3.629c.235.546.254 1.073.059 1.58-.195.508-.566.84-1.112.996l-6.673 2.81c.234 1.248.35 2.38.35 3.395 0 1.014-.116 2.146-.35 3.395l6.673 2.692c.546.234.917.586 1.112 1.054.195.468.176.976-.059 1.522zM26.292 15.102c-3.083 0-5.737 1.093-7.961 3.279-2.225 2.185-3.337 4.838-3.337 7.96s1.112 5.776 3.337 7.962c2.224 2.185 4.878 3.278 7.96 3.278 3.084 0 5.718-1.093 7.903-3.279 2.185-2.185 3.278-4.839 3.278-7.96 0-3.122-1.093-5.776-3.278-7.961-2.185-2.186-4.82-3.279-7.902-3.279z" fill="#FE9E45"/></svg>