<svg width="40" height="40" fill="none" xmlns="http://www.w3.org/2000/svg"><path d="M2.222 24.445h35.556v-8.89H2.222v8.89zm8.89-5.556h15.555v2.222H11.11V18.89zm-4.445 0h2.222v2.222H6.667V18.89zM35.556 4.444H4.444a2.222 2.222 0 00-2.222 2.223v6.666h35.556V6.667a2.222 2.222 0 00-2.222-2.223zM8.889 10H6.667V7.778h2.222V10zm17.778 0H11.11V7.778h15.556V10zM2.222 33.333a2.222 2.222 0 002.222 2.223h31.112a2.223 2.223 0 002.222-2.223v-6.666H2.222v6.666zM11.112 30h15.555v2.222H11.11V30zm-4.445 0h2.222v2.222H6.667V30z" fill="#FE9E45"/></svg>