<svg width="100" height="101" fill="none" xmlns="http://www.w3.org/2000/svg"><circle cx="50" cy="50.994" r="49" stroke="#FE9E45" stroke-width="2"/><path d="M50 21.827c-16.083 0-29.167 13.084-29.167 29.167v12.083c0 2.987 2.617 5.417 5.834 5.417h2.916a2.916 2.916 0 002.917-2.917v-15a2.917 2.917 0 00-2.917-2.917h-2.648c1.622-11.288 11.334-20 23.065-20 11.73 0 21.443 8.712 23.065 20h-2.648a2.917 2.917 0 00-2.917 2.917v17.917a5.84 5.84 0 01-5.833 5.833h-5.834V71.41H44.167v8.75h17.5c6.434 0 11.666-5.232 11.666-11.666 3.217 0 5.834-2.43 5.834-5.417V50.994c0-16.083-13.085-29.167-29.167-29.167z" fill="#fff"/></svg>