<svg width="100" height="100" fill="none" xmlns="http://www.w3.org/2000/svg"><path d="M40.822 12.5c-2.738 0-5.14 1.406-6.838 3.222-1.697 1.819-2.918 4.09-4.003 6.544-1.66 3.78-2.844 7.984-3.906 11.915-3.394.988-6.275 2.219-8.594 3.71-2.71 1.747-4.981 4.162-4.981 7.422 0 2.83 1.734 5.103 3.906 6.737 1.857 1.394 4.138 2.553 6.838 3.516.156.718.39 1.453.681 2.15-2.634 1.487-6.813 4.368-10.838 9.862l-1.856 2.638 2.638 1.853 10.25 7.031-4.194 8.4h60.156l-4.2-8.4 10.257-7.031 2.634-1.853-1.853-2.638c-4.031-5.494-8.203-8.375-10.844-9.862a12.29 12.29 0 00.688-2.15c2.696-.963 4.978-2.125 6.834-3.516 2.172-1.634 3.906-3.906 3.906-6.737 0-3.26-2.272-5.675-4.981-7.422-2.319-1.491-5.2-2.722-8.594-3.713-1.172-4.075-2.466-8.347-4.1-12.106-1.062-2.431-2.234-4.666-3.906-6.447-1.672-1.781-4.053-3.125-6.74-3.125-1.82 0-3.198.5-4.688.878-1.488.378-2.99.684-4.49.684-3 0-5.52-1.562-9.182-1.562zm0 6.25c.647 0 4.49 1.563 9.178 1.563 2.344 0 4.431-.476 6.056-.879 1.622-.406 2.856-.684 3.125-.684.719 0 1.257.231 2.147 1.172.89.937 1.94 2.637 2.831 4.687 1.697 3.882 2.991 9.182 4.397 14.063 0-.013.169-.147-.293.097-.782.428-2.42.978-4.397 1.269-3.966.6-9.375.587-13.866.587-4.469 0-9.888-.063-13.869-.684-1.987-.303-3.6-.844-4.393-1.27-.244-.133-.329-.084-.391-.096v-.097c.012-.025-.013-.075 0-.1l.097-.097c.233-.42.368-.888.393-1.368v-.094c1.122-4.153 2.379-8.547 3.907-12.016.912-2.084 1.903-3.781 2.831-4.781.928-1.003 1.563-1.272 2.247-1.272zM25.584 40.919c.71 1.465 1.957 2.637 3.225 3.319 1.907 1.012 4.088 1.49 6.444 1.856 4.713.731 10.231.781 14.747.781 4.494 0 10.022.025 14.747-.684 2.369-.354 4.528-.816 6.444-1.857 1.28-.693 2.528-1.928 3.225-3.415 1.928.684 3.55 1.415 4.687 2.147 1.819 1.171 2.147 2.04 2.147 2.246 0 .185-.156.782-1.466 1.76-1.306.975-3.55 2.11-6.443 3.025C67.553 51.94 59.228 53.125 50 53.125c-9.228 0-17.553-1.184-23.34-3.028-2.894-.916-5.138-2.05-6.444-3.025-1.31-.978-1.466-1.575-1.466-1.76 0-.206.244-.987 2.05-2.15 1.137-.73 2.81-1.524 4.787-2.243h-.003zm8.107 17.09c1.025.17 2.04.45 3.125.585.406 2.747 2.54 5.162 5.956 5.372 2.637.156 5.603-1.088 5.862-4.591h2.735c.256 3.503 3.218 4.75 5.86 4.59 3.415-.209 5.552-2.624 5.955-5.371 1.085-.135 2.1-.416 3.125-.588l-.293 1.953c-.966 5.141-3.26 9.9-6.154 13.188-2.893 3.278-6.284 5.025-9.862 4.978-3.675-.05-6.994-1.819-9.862-5.078-2.87-3.26-5.125-7.922-6.154-13.088l-.293-1.95zM71.875 62.5c1.16.684 4.212 2.688 7.716 6.544l-9.475 6.54-2.244 1.47 1.172 2.437.878 1.759h-9.863a23.586 23.586 0 004.491-4.003c3.444-3.906 5.75-9.022 7.031-14.553.11-.06.197-.132.294-.194zm-43.847.097c.122.075.269.125.39.197 1.345 5.456 3.638 10.51 7.032 14.353 1.403 1.6 3.037 2.969 4.784 4.103H30.078l.878-1.76 1.172-2.437-2.247-1.469-9.468-6.54c3.306-3.65 6.321-5.666 7.615-6.447z" fill="#fff"/></svg>